<svg width="54" height="54" viewBox="0 0 54 54" fill="none" xmlns="http://www.w3.org/2000/svg">
<g clip-path="url(#clip0_388_1119)">
<rect width="54" height="54" fill="#F39412"/>
<path d="M57.2033 28.9663C56.4966 28.1288 55.8491 27.1999 55.1165 26.4009C53.9917 25.1687 52.9261 23.7344 51.2574 23.8307C51.8531 23.8307 52.4895 23.7922 52.9853 24.1195C53.8955 24.7163 54.7465 25.4864 55.5827 26.2517C56.8333 27.3972 57.9877 28.7594 59.3086 29.7316C60.7257 30.7761 62.3278 30.1744 63.1973 28.6342C61.6766 29.1203 59.6342 28.2732 58.0728 26.4442C58.5464 26.6945 58.9016 26.9207 59.279 27.0699C60.4334 27.5272 61.4768 27.224 62.35 26.1458C62.5313 25.9196 62.5646 25.4864 62.6645 25.1495C62.3944 25.1784 62.0651 25.0869 61.8653 25.2554C61.1919 25.8233 60.4889 25.8763 59.7674 25.573C59.2457 25.3516 58.7351 25.0484 58.2467 24.7259C57.3069 24.1002 56.4041 23.3638 55.4458 22.7958C53.2295 21.4866 51.1242 21.4626 49.1965 23.7585C48.8746 24.1435 48.253 24.3697 47.8201 24.2735C46.0478 23.874 44.2977 23.3253 42.4255 22.8006C43.4615 21.9487 44.9859 22.045 45.1857 19.9464C46.1477 19.4988 47.069 18.8779 47.4908 17.4388C47.5426 17.2655 47.7831 17.174 47.9459 17.0778C48.8709 16.5339 49.9143 16.197 50.2954 14.7289C50.3213 14.6327 50.473 14.5845 50.5692 14.522C51.1427 14.1321 51.7532 13.8144 52.2823 13.3379C52.9335 12.7507 53.4774 12.0095 53.2443 10.8303C54.8908 9.76173 55.986 7.82683 55.7048 6.50802C57.0701 5.21327 57.8952 3.54791 57.9026 1.12207C57.2292 1.41567 56.6779 1.77666 56.097 1.88255C52.7596 2.50345 49.4074 3.00402 46.0737 3.65862C43.2173 4.22176 40.3646 4.8571 37.5341 5.61277C36.0801 6.00264 34.996 7.23962 34.4521 9.07345C33.9489 10.7725 33.5567 12.5245 33.1275 14.2572C33.0054 14.753 32.9536 15.2873 32.7982 15.7638C32.4541 16.8419 31.5069 17.3666 30.815 16.7842C30.2489 16.3077 29.7753 15.6434 29.2573 15.061C31.4847 16.2066 32.1433 16.2018 32.5355 14.8156C30.6892 15.3258 29.7568 13.3187 28.4285 12.3416C29.6051 12.693 30.7151 14.2332 31.9472 12.7507C30.0898 11.7207 28.2842 10.7196 26.4786 9.72323C26.6858 9.61734 26.8412 9.68472 27.0003 9.73767C28.1436 10.1227 29.2795 10.5463 30.4339 10.8688C31.0518 11.042 31.6993 11.0276 31.9694 10.0361C31.333 9.94945 30.6855 9.99758 30.1046 9.75692C28.3138 9.02531 26.5489 8.18301 24.7729 7.37921C24.7211 7.35514 24.6767 7.3022 24.6286 7.25888C25.7867 7.42734 26.8893 7.82202 28.003 8.18301C28.8281 8.44773 29.6569 8.7269 30.4931 8.88573C30.9963 8.982 31.4736 8.74615 31.6956 8.00973C31.259 7.95198 30.8409 7.98085 30.4635 7.83646C29.2351 7.36477 28.0215 6.82088 26.7968 6.32512C24.5583 5.42024 22.3272 4.45761 19.9259 5.03037C19.7113 5.08332 19.493 5.12664 19.0823 5.21809C19.9999 4.5298 21.454 4.33246 22.8785 4.73196C24.9431 5.31435 26.9892 6.01226 29.0538 6.59466C29.4904 6.7198 29.9751 6.55615 30.4376 6.52246C29.6347 6.02189 28.891 5.6609 28.1436 5.2951C25.1836 3.84633 22.2088 2.54677 19.012 3.81264C18.8381 3.52866 18.6642 3.23987 18.4866 2.95108C18.346 3.05697 18.2757 3.09548 18.2239 3.15805C17.7207 3.75007 17.643 5.07851 16.5922 4.76084C16.5515 4.7464 16.4183 5.05444 16.3813 5.23253C16.2703 5.7331 16.2111 6.25774 16.0779 6.74387C15.9743 7.11929 15.8041 7.47066 15.6339 7.80758C15.2935 8.46699 14.8495 9.05419 14.6016 9.76173C14.1613 10.9987 13.8912 12.3368 13.4472 13.569C13.1105 14.5123 12.5629 15.3258 12.204 16.2595C11.7563 17.4147 12.0079 18.1463 12.7701 18.9068C13.6618 19.7924 14.6386 19.1859 15.571 19.2966C15.7301 19.3159 15.9669 18.6661 16.1149 18.2907C16.2703 17.9008 16.2962 17.3954 16.5034 17.073C17.0843 16.1536 17.8761 15.6434 18.7826 15.499C19.4116 15.4028 19.9629 15.6338 20.1146 16.5531C20.2441 17.3425 20.4846 18.2041 20.3588 18.9405C20.0961 20.4566 19.7113 21.968 19.2081 23.3734C18.4903 25.3709 18.1869 27.3924 18.5014 29.6209C18.2165 29.6209 17.9612 29.6739 17.7281 29.6113C16.4701 29.284 15.2158 28.9278 13.9578 28.5909C12.9255 28.3117 12.5666 28.6294 12.1559 29.8568C11.3382 32.3115 10.6315 34.848 9.31804 36.9803C9.15894 37.2402 9.18114 37.7841 9.24774 38.1595C9.38094 38.9152 9.61773 39.642 9.77683 40.3928C10.1246 42.0486 10.8535 43.3626 11.9524 44.7151C12.2003 43.5984 12.4482 42.7176 12.5851 41.8127C12.7701 40.5757 12.4038 39.9981 11.4381 39.6275C11.2938 39.5746 11.1162 39.0885 11.1606 38.8767C11.4603 37.4664 11.7896 36.061 12.167 34.6796C12.6443 32.9324 13.8579 32.1623 15.2195 32.7687C16.1149 33.1682 16.9733 33.7073 17.9538 34.2416C17.3211 34.5641 16.7735 34.8384 16.2296 35.1272C15.6339 35.4449 15.2602 35.931 15.1751 36.8551C14.9309 39.5457 14.5942 42.2266 14.35 44.922C14.313 45.3263 14.5313 45.8462 14.7422 46.2023C15.2195 47.0013 15.8559 47.6607 16.2666 48.503C17.1287 50.2791 18.5717 50.0096 19.9888 50.6978C19.604 49.4175 19.3376 48.4357 19.012 47.4923C18.7937 46.8569 18.3793 46.3419 17.8169 46.5585C17.0621 46.8473 16.8401 46.159 16.8179 45.5766C16.755 43.8294 16.7513 42.0726 16.8549 40.3303C16.9215 39.1847 17.5505 38.5494 18.4496 38.482C20.3107 38.3472 22.1718 38.2702 24.0292 38.0873C24.6656 38.0247 25.2909 37.7263 25.9199 37.5194C26.2862 37.399 26.6451 37.1487 27.0114 37.1247C28.4174 37.0428 29.8456 37.1824 31.2331 36.9466C32.9499 36.6578 34.6371 36.1043 36.3316 35.6181C36.8015 35.4834 37.0494 35.5123 37.3343 36.1476C37.7857 37.1584 38.3481 38.121 38.9845 38.9441C39.9687 40.2196 41.0565 41.3555 42.1184 42.5732C40.6051 43.9016 39.0548 44.9509 37.2862 45.3889C36.9902 45.4611 36.6239 45.6536 36.4611 45.952C35.4659 47.757 34.5372 49.6197 33.5456 51.4295C33.3754 51.7423 32.9647 51.2225 34.3892 52.2621C35.9728 53.7831 38.337 53.6483 35.6916 53.8023H37.5119C37.449 53.4317 37.4527 53.0419 37.5341 52.6809C37.5822 52.4691 37.6377 52.2669 37.7006 52.0648C37.486 52.0552 37.2677 52.0455 37.0531 52.0359C36.7164 51.2273 37.8079 50.0721 36.6388 49.5138C36.9347 48.7244 37.1271 47.8533 38.0114 48.479C38.1113 48.5512 38.3999 48.3731 38.4961 48.2046C39.2102 46.9821 40.2018 46.2793 41.2563 45.7258C42.3293 45.1675 43.4319 44.7006 44.5234 44.2097C45.1783 43.9161 45.6112 43.3385 45.8739 42.6502C45.0377 41.3892 44.257 40.2099 43.4208 38.9489C44.9008 39.5313 46.2365 40.1185 47.5981 40.5757C48.6896 40.9463 49.8144 41.1437 50.9207 41.4517C51.9456 41.7405 52.7078 42.4962 53.1259 43.7572C53.6254 45.2541 54.1434 46.7462 54.5504 48.2913C54.4764 47.8003 54.4394 47.2853 54.4283 46.7655C54.3062 46.3997 54.2433 45.9954 54.2581 45.5959C54.1767 45.3311 54.1249 45.0279 54.1212 44.6862C54.1027 42.7705 53.8955 40.8597 54.0509 38.9441C53.8252 38.6938 53.5292 38.5012 53.137 38.3617C50.2658 37.3461 49.6775 35.185 49.6146 31.8494C49.585 30.1937 49.4111 28.5957 48.6933 27.1421C49.1928 27.0266 49.6627 26.964 50.1178 26.81C51.3129 26.4057 52.2453 26.8918 52.9631 28.1577C53.618 29.3177 54.2174 30.5354 54.9315 31.6328C55.986 33.2597 57.3439 33.6977 58.8831 33.0816C58.2615 32.7014 57.4993 32.504 57.0479 31.912C55.8195 30.2948 54.7206 28.5091 53.5736 26.7908C53.7882 26.7571 53.9288 26.8293 54.0213 26.9592C54.8057 28.0181 55.6641 29.0096 56.3449 30.1744C57.984 32.9805 61.1919 32.1286 62.8421 30.4007C62.6275 30.4392 62.4832 30.4488 62.3426 30.4873C60.4334 31.0552 58.6833 30.7135 57.1959 28.9471L57.2033 28.9663ZM39.2694 21.4722C39.7245 20.4085 40.2129 19.7828 41.1564 19.9801C41.9593 20.1486 42.7844 20.139 43.7353 20.216C42.3626 21.8958 40.8456 21.5685 39.2694 21.4722ZM35.699 25.5393C36.7942 24.2783 37.2714 24.2494 38.8772 25.3276C37.8338 26.3383 36.7905 25.8089 35.699 25.5393ZM36.487 27.2913C35.4733 27.9315 34.6075 27.8641 33.7343 27.2817C34.6149 25.78 35.4918 26.7475 36.487 27.2913ZM37.5341 23.5467C38.1594 22.4252 39.3175 22.2616 41.0306 23.0461C40.5607 23.9606 39.151 24.1628 37.5341 23.5467ZM40.5052 18.7479C40.8086 17.7083 41.2378 17.1066 42.1443 17.2174C43.3653 17.3666 44.5937 17.4051 45.8628 17.4917C45.3374 18.7816 42.6771 19.364 40.5052 18.7431V18.7479ZM47.0024 15.8456C46.6139 15.9563 46.2106 16.0141 45.811 16.0237C44.5419 16.0477 43.2728 16.0333 41.9889 16.0333C42.4625 14.753 43.1655 14.3391 44.2496 14.4594C45.7074 14.6182 47.1837 14.4979 48.7636 14.4979C48.3159 15.5039 47.6499 15.6675 47.0024 15.8456ZM49.7552 12.8903C48.3307 13.0203 46.8988 13.0973 45.4706 13.1598C44.7047 13.1935 43.9388 13.1647 43.1729 13.1647C43.3986 12.2453 43.7649 11.5859 44.6011 11.5378C46.8951 11.4175 49.1891 11.2538 51.6533 11.0998C51.1871 12.433 50.5211 12.8181 49.7515 12.8855L49.7552 12.8903ZM52.1343 9.33817C50.2066 9.56439 48.2715 9.73285 46.3401 9.93501C45.7185 9.99758 45.1006 10.0987 44.4716 10.1805C44.7528 9.25153 45.1746 8.66914 46.0774 8.58732C48.6526 8.36591 51.2204 8.00011 53.914 7.67762C53.4996 8.7991 52.8817 9.24672 52.1306 9.33336L52.1343 9.33817ZM31.6401 17.949L31.7252 18.0982C31.3959 18.2377 31.0259 18.565 30.7447 18.4688C30.3784 18.3388 30.0787 17.8719 29.6791 17.4773C30.4598 17.665 31.0518 17.8094 31.6438 17.9538L31.6401 17.949ZM16.7735 31.8927C15.6783 31.32 14.5905 30.728 13.2659 31.2237C13.4435 30.8387 13.5693 30.5595 13.6692 30.3477C15.4489 30.9397 17.1879 31.5173 18.9269 32.0997C18.1795 32.6051 17.4728 32.2634 16.7735 31.8976V31.8927ZM52.6671 39.6708C53.507 39.9981 53.7475 40.5132 53.6735 41.3603C53.3257 41.0811 52.9705 40.6335 52.5524 40.4891C51.0206 39.9741 49.474 39.5168 47.9237 39.1173C46.07 38.6408 44.6196 37.4327 43.5836 35.3679C42.5254 33.2597 41.3229 31.3392 39.4951 30.2707C39.3619 30.1937 39.2324 30.1071 39.0289 30.1504C39.4137 30.5836 39.8022 31.0216 40.187 31.4547C40.1685 31.4932 40.15 31.5318 40.1315 31.5703C39.4988 31.3103 38.8661 31.0504 38.2334 30.7905C38.2149 30.8483 38.1964 30.906 38.1742 30.9638C38.8476 31.4114 39.521 31.8591 39.9761 32.1623C38.8402 32.3452 37.5193 32.4222 36.2465 32.7928C33.8379 33.5003 31.4514 34.309 28.9539 34.1694C28.4285 34.1405 27.9068 34.0346 27.4332 33.972C27.6219 32.504 27.7995 31.0986 27.9771 29.6979C27.8994 29.6691 27.8254 29.6354 27.7477 29.6065C27.6589 29.9097 27.5997 30.2322 27.4813 30.5114C26.9448 31.7965 26.4453 33.1201 25.8311 34.3427C25.117 35.7674 24.0107 36.2727 22.7231 36.3642C21.2394 36.4653 19.7557 36.6385 18.2905 36.961C17.495 37.1343 16.7439 37.6734 16.0335 38.0199C16.0076 37.1824 16.459 36.6915 17.2212 36.2439C19.0305 35.1801 20.7769 33.9287 22.5418 32.7351C22.7379 32.6003 22.9488 32.4222 23.0672 32.1863C23.1856 31.9457 23.1967 31.6184 23.2559 31.3296C23.0635 31.2767 22.86 31.1467 22.6824 31.19C22.2125 31.3103 22.1792 30.9734 22.1792 30.5258C22.1718 28.047 22.9155 26.0207 24.3474 24.4082C24.4769 24.2638 24.6064 24.1195 24.8358 23.8595C23.2189 24.6056 20.6881 27.2625 20.7473 31.397C19.4153 29.1396 19.3413 25.7944 20.1997 24.0328C21.0581 22.2664 21.5983 20.4037 21.3023 18.2618C21.3689 18.2474 21.4355 18.2377 21.5021 18.2233C21.6649 19.2678 21.8277 20.3122 22.0016 21.4481C22.3383 20.1919 22.2273 18.9597 21.9831 17.7997C21.7537 16.7168 21.3726 15.6579 20.9323 14.6856C20.6548 14.0743 20.4957 13.5641 20.6844 12.8807C20.9175 12.0432 20.7066 11.2875 20.3107 10.4981C20.2478 11.3116 20.196 12.0287 20.1405 12.7411L20.0073 12.717L19.678 10.3538C19.5855 10.3345 19.4893 10.3152 19.3968 10.3008C20.1109 12.6881 18.8196 13.5738 17.6393 14.3824C16.6699 15.0466 16.0631 16.0911 15.4637 17.1692C15.2713 17.5206 15.3083 18.0885 15.2343 18.618C14.5498 18.6806 14.8606 17.8286 14.6571 17.2029C14.2205 17.665 13.8061 18.1078 13.388 18.5458C13.3103 18.4592 13.2363 18.3725 13.1586 18.2859C13.3769 17.7131 13.5915 17.1403 13.8098 16.5628C13.7728 16.5291 13.7321 16.4954 13.6951 16.4569C13.425 16.8323 13.1512 17.2125 12.8811 17.588L12.7405 17.4724C13.2326 16.2403 13.7506 15.0274 14.2131 13.7759C14.5387 12.8951 14.8643 11.9999 15.0641 11.0613C15.3897 9.51626 16.2 8.52474 17.1768 7.74982C17.4284 7.54767 17.9353 7.77389 18.2868 7.94235C18.5236 8.05305 18.6975 8.40442 18.975 8.73652C18.79 7.73057 18.4755 7.09042 17.6541 7.08079C19.0083 6.42138 20.3477 6.49358 21.676 7.10004C24.5916 8.42367 26.1789 11.3308 27.1742 14.9407C27.4628 15.99 27.7292 17.0537 28.0992 18.0548C28.4507 19.0127 28.9243 19.8983 29.3831 20.8994C28.6098 21.3326 27.781 21.7995 26.9485 22.2664L27.0521 22.6996C27.7514 22.584 28.4914 22.6274 29.1426 22.3338C32.1174 20.9813 34.0488 18.3388 34.7592 14.2861C34.8813 13.5834 34.9738 12.871 35.1144 12.1779C35.9173 8.2167 37.2122 6.71018 40.4164 6.21923C43.0656 5.81492 45.7333 5.58389 48.3862 5.20365C50.5618 4.89079 52.73 4.47204 54.8982 4.10624C55.0943 4.07255 55.2941 4.05811 55.4902 4.03405L55.5975 4.27952C55.1498 4.66939 54.7391 5.25659 54.247 5.41543C52.619 5.95451 50.9762 6.50802 49.3112 6.75349C46.9395 7.10486 44.5456 7.19631 42.1628 7.37439C40.7087 7.48028 39.4988 8.31297 38.67 9.77136C37.9189 11.095 37.2011 12.5726 36.8496 14.1273C35.958 18.0789 33.8675 20.4614 31.1924 22.2231C30.5264 22.6611 29.8308 23.022 29.15 23.4167C31.0333 23.4071 32.6502 22.4685 34.0673 21.0005C35.7693 19.2389 36.8755 16.9623 37.4749 14.2091C38.0114 11.7399 38.892 9.48738 40.853 8.38998C41.223 8.18301 41.6781 8.15894 42.0888 8.18301C42.7585 8.22151 43.4245 8.37554 44.1756 8.49105C42.9324 9.58364 41.5708 9.57883 40.1944 9.52107C40.1907 9.61734 40.1833 9.7136 40.1796 9.81468C41.2415 9.95426 42.3034 10.0987 43.4208 10.2479C42.3959 11.6052 40.9973 11.4704 39.7652 12.1058H42.6623C41.5079 13.9059 40.0501 13.4101 38.7144 13.5256C38.7033 13.6123 38.6922 13.6989 38.6848 13.7856C39.6875 13.9925 40.6865 14.2043 41.7336 14.4209C40.6199 15.8889 39.0992 15.8456 37.6636 16.3654C38.5294 16.4761 39.3989 16.582 40.335 16.6975C39.4285 18.0212 38.1557 18.0693 36.9865 18.4158C36.9976 18.5025 37.0088 18.5939 37.0236 18.6806H39.7726C38.4813 20.8513 36.6979 20.6155 34.9812 20.6636C34.9701 20.7502 34.9553 20.8417 34.9442 20.9283C35.9247 21.1257 36.9088 21.323 37.9485 21.53C36.6794 22.8199 35.292 22.7429 33.849 22.2134C34.2523 23.1568 34.4151 23.2723 35.9173 23.6526C35.1144 24.7259 34.4595 24.697 32.5392 23.513C32.4911 23.5852 32.4467 23.6622 32.3986 23.7344C32.961 24.3168 33.5271 24.8992 34.0821 25.472C32.961 26.1458 32.0027 25.3709 31.0481 24.5623C31 24.6248 30.9482 24.6922 30.9001 24.7548C31.4144 25.342 31.9287 25.9292 32.443 26.5164L32.3357 26.863C31.5957 26.6223 30.8594 26.3865 30.2045 26.1747C30.4487 27.0459 31.2442 27.7727 32.1433 27.9122C32.628 27.9893 33.1275 28.124 33.5678 28.3839C35.0256 29.2455 36.5166 28.8749 37.6007 27.325C37.6969 27.1855 37.8856 27.1036 38.0373 27.0796C39.0733 26.94 39.8614 26.2998 40.5459 25.2891C40.8123 24.8992 41.2933 24.6008 41.6966 24.5526C43.8907 24.2783 45.7296 25.4142 47.3539 27.2143C48.1901 28.1385 48.3122 29.4717 48.3751 30.8001C48.4195 31.7147 48.4269 32.6292 48.5009 33.5389C48.771 36.8455 50.3287 38.7756 52.6523 39.6853L52.6671 39.6708Z" fill="#383838"/>
</g>
<defs>
<clipPath id="clip0_388_1119">
<rect width="54" height="54" fill="white"/>
</clipPath>
</defs>
</svg>
